<?xml version="1.0" encoding="utf-8" ?>
<svg xmlns="http://www.w3.org/2000/svg" xmlns:xlink="http://www.w3.org/1999/xlink" width="10" height="10">
	<defs>
		<clipPath id="clip_0">
			<rect x="-405.70996" y="-411.10999" width="776" height="582" clip-rule="evenodd"/>
		</clipPath>
	</defs>
	<g clip-path="url(#clip_0)">
		<path fill="rgb(60,207,142)" stroke="none" transform="matrix(0.97 0 0 0.97 0.330322 0.663818)" d="M0 4.50443C0 2.02074 2.02074 0 4.50422 0C6.9877 0 9.00845 2.02074 9.00845 4.50443C9.00845 6.9879 6.9877 9.00865 4.50422 9.00865C2.02074 9.00865 0 6.9879 0 4.50443ZM0.725738 4.50443C0.725738 6.58743 2.42121 8.2821 4.50422 8.2821C6.58743 8.2821 8.2821 6.58743 8.2821 4.50443C8.2821 2.42121 6.58743 0.725738 4.50422 0.725738C2.42121 0.725738 0.725738 2.42041 0.725738 4.50443Z" fill-rule="evenodd"/>
	</g>
	<defs>
		<clipPath id="clip_1">
			<rect x="-405.70996" y="-411.10999" width="776" height="582" clip-rule="evenodd"/>
		</clipPath>
	</defs>
	<g clip-path="url(#clip_1)">
		<path fill="rgb(60,207,142)" stroke="none" transform="matrix(0.97 0 0 0.97 2.70569 3.53693)" d="M3.49107 0.10598L1.38886 2.209L0.61905 1.43899C0.477744 1.29769 0.247893 1.29769 0.106586 1.43899C-0.0355288 1.58111 -0.0355288 1.81096 0.106586 1.95226L1.13232 2.97881C1.20328 3.04916 1.29566 3.08474 1.38886 3.08474C1.48124 3.08474 1.57444 3.04916 1.6456 2.97881L4.00434 0.619252C4.14646 0.477137 4.14646 0.248095 4.00434 0.10598C3.86304 -0.0353266 3.63319 -0.0353266 3.49107 0.10598Z"/>
	</g>

</svg>